<mxfile host="app.diagrams.net" modified="2022-09-29T11:14:25.076Z" agent="5.0 (Windows NT 10.0; Win64; x64) AppleWebKit/537.36 (KHTML, like Gecko) Chrome/105.0.0.0 Safari/537.36" etag="jaQ_gcjorMNR4GtEOxKE" version="20.3.7" type="github">
  <diagram id="j8MIKw62AZeavG9Pxoqh" name="Side-1">
    <mxGraphModel dx="1038" dy="579" grid="1" gridSize="10" guides="1" tooltips="1" connect="1" arrows="1" fold="1" page="1" pageScale="1" pageWidth="827" pageHeight="1169" math="0" shadow="0">
      <root>
        <mxCell id="0" />
        <mxCell id="1" parent="0" />
        <mxCell id="_aWR4UNyZZ-UsJ6io7S8-28" value="" style="shape=table;startSize=0;container=1;collapsible=0;childLayout=tableLayout;" vertex="1" parent="1">
          <mxGeometry x="2" width="830" height="750" as="geometry" />
        </mxCell>
        <mxCell id="_aWR4UNyZZ-UsJ6io7S8-29" value="" style="shape=tableRow;horizontal=0;startSize=0;swimlaneHead=0;swimlaneBody=0;top=0;left=0;bottom=0;right=0;collapsible=0;dropTarget=0;fillColor=none;points=[[0,0.5],[1,0.5]];portConstraint=eastwest;" vertex="1" parent="_aWR4UNyZZ-UsJ6io7S8-28">
          <mxGeometry width="830" height="40" as="geometry" />
        </mxCell>
        <mxCell id="_aWR4UNyZZ-UsJ6io7S8-30" value="Method" style="shape=partialRectangle;html=1;whiteSpace=wrap;connectable=0;overflow=hidden;fillColor=none;top=0;left=0;bottom=0;right=0;pointerEvents=1;" vertex="1" parent="_aWR4UNyZZ-UsJ6io7S8-29">
          <mxGeometry width="166" height="40" as="geometry">
            <mxRectangle width="166" height="40" as="alternateBounds" />
          </mxGeometry>
        </mxCell>
        <mxCell id="_aWR4UNyZZ-UsJ6io7S8-31" value="URL" style="shape=partialRectangle;html=1;whiteSpace=wrap;connectable=0;overflow=hidden;fillColor=none;top=0;left=0;bottom=0;right=0;pointerEvents=1;" vertex="1" parent="_aWR4UNyZZ-UsJ6io7S8-29">
          <mxGeometry x="166" width="166" height="40" as="geometry">
            <mxRectangle width="166" height="40" as="alternateBounds" />
          </mxGeometry>
        </mxCell>
        <mxCell id="_aWR4UNyZZ-UsJ6io7S8-32" value="Request body(JSON)" style="shape=partialRectangle;html=1;whiteSpace=wrap;connectable=0;overflow=hidden;fillColor=none;top=0;left=0;bottom=0;right=0;pointerEvents=1;" vertex="1" parent="_aWR4UNyZZ-UsJ6io7S8-29">
          <mxGeometry x="332" width="166" height="40" as="geometry">
            <mxRectangle width="166" height="40" as="alternateBounds" />
          </mxGeometry>
        </mxCell>
        <mxCell id="_aWR4UNyZZ-UsJ6io7S8-33" value="Response(JSON)" style="shape=partialRectangle;html=1;whiteSpace=wrap;connectable=0;overflow=hidden;fillColor=none;top=0;left=0;bottom=0;right=0;pointerEvents=1;" vertex="1" parent="_aWR4UNyZZ-UsJ6io7S8-29">
          <mxGeometry x="498" width="166" height="40" as="geometry">
            <mxRectangle width="166" height="40" as="alternateBounds" />
          </mxGeometry>
        </mxCell>
        <mxCell id="_aWR4UNyZZ-UsJ6io7S8-34" value="Error(e)" style="shape=partialRectangle;html=1;whiteSpace=wrap;connectable=0;overflow=hidden;fillColor=none;top=0;left=0;bottom=0;right=0;pointerEvents=1;" vertex="1" parent="_aWR4UNyZZ-UsJ6io7S8-29">
          <mxGeometry x="664" width="166" height="40" as="geometry">
            <mxRectangle width="166" height="40" as="alternateBounds" />
          </mxGeometry>
        </mxCell>
        <mxCell id="_aWR4UNyZZ-UsJ6io7S8-35" value="" style="shape=tableRow;horizontal=0;startSize=0;swimlaneHead=0;swimlaneBody=0;top=0;left=0;bottom=0;right=0;collapsible=0;dropTarget=0;fillColor=none;points=[[0,0.5],[1,0.5]];portConstraint=eastwest;" vertex="1" parent="_aWR4UNyZZ-UsJ6io7S8-28">
          <mxGeometry y="40" width="830" height="70" as="geometry" />
        </mxCell>
        <mxCell id="_aWR4UNyZZ-UsJ6io7S8-36" value="GET" style="shape=partialRectangle;html=1;whiteSpace=wrap;connectable=0;overflow=hidden;fillColor=none;top=0;left=0;bottom=0;right=0;pointerEvents=1;" vertex="1" parent="_aWR4UNyZZ-UsJ6io7S8-35">
          <mxGeometry width="166" height="70" as="geometry">
            <mxRectangle width="166" height="70" as="alternateBounds" />
          </mxGeometry>
        </mxCell>
        <mxCell id="_aWR4UNyZZ-UsJ6io7S8-37" value="/api/person/{phoneNumber}&lt;br&gt;phonerNumber: a persons phone number" style="shape=partialRectangle;html=1;whiteSpace=wrap;connectable=0;overflow=hidden;fillColor=none;top=0;left=0;bottom=0;right=0;pointerEvents=1;" vertex="1" parent="_aWR4UNyZZ-UsJ6io7S8-35">
          <mxGeometry x="166" width="166" height="70" as="geometry">
            <mxRectangle width="166" height="70" as="alternateBounds" />
          </mxGeometry>
        </mxCell>
        <mxCell id="_aWR4UNyZZ-UsJ6io7S8-38" value="" style="shape=partialRectangle;html=1;whiteSpace=wrap;connectable=0;overflow=hidden;fillColor=none;top=0;left=0;bottom=0;right=0;pointerEvents=1;" vertex="1" parent="_aWR4UNyZZ-UsJ6io7S8-35">
          <mxGeometry x="332" width="166" height="70" as="geometry">
            <mxRectangle width="166" height="70" as="alternateBounds" />
          </mxGeometry>
        </mxCell>
        <mxCell id="_aWR4UNyZZ-UsJ6io7S8-39" value="PersonDTO&lt;br&gt;{email, address, firstName,&lt;br&gt;lastName, hobbies, age&lt;br&gt;gender}&lt;br&gt;" style="shape=partialRectangle;html=1;whiteSpace=wrap;connectable=0;overflow=hidden;fillColor=none;top=0;left=0;bottom=0;right=0;pointerEvents=1;" vertex="1" parent="_aWR4UNyZZ-UsJ6io7S8-35">
          <mxGeometry x="498" width="166" height="70" as="geometry">
            <mxRectangle width="166" height="70" as="alternateBounds" />
          </mxGeometry>
        </mxCell>
        <mxCell id="_aWR4UNyZZ-UsJ6io7S8-40" value="(e1)" style="shape=partialRectangle;html=1;whiteSpace=wrap;connectable=0;overflow=hidden;fillColor=none;top=0;left=0;bottom=0;right=0;pointerEvents=1;" vertex="1" parent="_aWR4UNyZZ-UsJ6io7S8-35">
          <mxGeometry x="664" width="166" height="70" as="geometry">
            <mxRectangle width="166" height="70" as="alternateBounds" />
          </mxGeometry>
        </mxCell>
        <mxCell id="_aWR4UNyZZ-UsJ6io7S8-41" value="" style="shape=tableRow;horizontal=0;startSize=0;swimlaneHead=0;swimlaneBody=0;top=0;left=0;bottom=0;right=0;collapsible=0;dropTarget=0;fillColor=none;points=[[0,0.5],[1,0.5]];portConstraint=eastwest;" vertex="1" parent="_aWR4UNyZZ-UsJ6io7S8-28">
          <mxGeometry y="110" width="830" height="50" as="geometry" />
        </mxCell>
        <mxCell id="_aWR4UNyZZ-UsJ6io7S8-42" value="GET" style="shape=partialRectangle;html=1;whiteSpace=wrap;connectable=0;overflow=hidden;fillColor=none;top=0;left=0;bottom=0;right=0;pointerEvents=1;" vertex="1" parent="_aWR4UNyZZ-UsJ6io7S8-41">
          <mxGeometry width="166" height="50" as="geometry">
            <mxRectangle width="166" height="50" as="alternateBounds" />
          </mxGeometry>
        </mxCell>
        <mxCell id="_aWR4UNyZZ-UsJ6io7S8-43" value="/api/hobbies/{hobbyName}&lt;br&gt;hobbyName: the name of a hobby" style="shape=partialRectangle;html=1;whiteSpace=wrap;connectable=0;overflow=hidden;fillColor=none;top=0;left=0;bottom=0;right=0;pointerEvents=1;" vertex="1" parent="_aWR4UNyZZ-UsJ6io7S8-41">
          <mxGeometry x="166" width="166" height="50" as="geometry">
            <mxRectangle width="166" height="50" as="alternateBounds" />
          </mxGeometry>
        </mxCell>
        <mxCell id="_aWR4UNyZZ-UsJ6io7S8-44" value="" style="shape=partialRectangle;html=1;whiteSpace=wrap;connectable=0;overflow=hidden;fillColor=none;top=0;left=0;bottom=0;right=0;pointerEvents=1;" vertex="1" parent="_aWR4UNyZZ-UsJ6io7S8-41">
          <mxGeometry x="332" width="166" height="50" as="geometry">
            <mxRectangle width="166" height="50" as="alternateBounds" />
          </mxGeometry>
        </mxCell>
        <mxCell id="_aWR4UNyZZ-UsJ6io7S8-45" value="[person, person...]" style="shape=partialRectangle;html=1;whiteSpace=wrap;connectable=0;overflow=hidden;fillColor=none;top=0;left=0;bottom=0;right=0;pointerEvents=1;" vertex="1" parent="_aWR4UNyZZ-UsJ6io7S8-41">
          <mxGeometry x="498" width="166" height="50" as="geometry">
            <mxRectangle width="166" height="50" as="alternateBounds" />
          </mxGeometry>
        </mxCell>
        <mxCell id="_aWR4UNyZZ-UsJ6io7S8-46" value="(e2)" style="shape=partialRectangle;html=1;whiteSpace=wrap;connectable=0;overflow=hidden;fillColor=none;top=0;left=0;bottom=0;right=0;pointerEvents=1;" vertex="1" parent="_aWR4UNyZZ-UsJ6io7S8-41">
          <mxGeometry x="664" width="166" height="50" as="geometry">
            <mxRectangle width="166" height="50" as="alternateBounds" />
          </mxGeometry>
        </mxCell>
        <mxCell id="_aWR4UNyZZ-UsJ6io7S8-47" value="" style="shape=tableRow;horizontal=0;startSize=0;swimlaneHead=0;swimlaneBody=0;top=0;left=0;bottom=0;right=0;collapsible=0;dropTarget=0;fillColor=none;points=[[0,0.5],[1,0.5]];portConstraint=eastwest;" vertex="1" parent="_aWR4UNyZZ-UsJ6io7S8-28">
          <mxGeometry y="160" width="830" height="40" as="geometry" />
        </mxCell>
        <mxCell id="_aWR4UNyZZ-UsJ6io7S8-48" value="GET" style="shape=partialRectangle;html=1;whiteSpace=wrap;connectable=0;overflow=hidden;fillColor=none;top=0;left=0;bottom=0;right=0;pointerEvents=1;" vertex="1" parent="_aWR4UNyZZ-UsJ6io7S8-47">
          <mxGeometry width="166" height="40" as="geometry">
            <mxRectangle width="166" height="40" as="alternateBounds" />
          </mxGeometry>
        </mxCell>
        <mxCell id="_aWR4UNyZZ-UsJ6io7S8-49" value="/api/person/{city}&lt;br&gt;city: the name of a city" style="shape=partialRectangle;html=1;whiteSpace=wrap;connectable=0;overflow=hidden;fillColor=none;top=0;left=0;bottom=0;right=0;pointerEvents=1;" vertex="1" parent="_aWR4UNyZZ-UsJ6io7S8-47">
          <mxGeometry x="166" width="166" height="40" as="geometry">
            <mxRectangle width="166" height="40" as="alternateBounds" />
          </mxGeometry>
        </mxCell>
        <mxCell id="_aWR4UNyZZ-UsJ6io7S8-50" value="" style="shape=partialRectangle;html=1;whiteSpace=wrap;connectable=0;overflow=hidden;fillColor=none;top=0;left=0;bottom=0;right=0;pointerEvents=1;" vertex="1" parent="_aWR4UNyZZ-UsJ6io7S8-47">
          <mxGeometry x="332" width="166" height="40" as="geometry">
            <mxRectangle width="166" height="40" as="alternateBounds" />
          </mxGeometry>
        </mxCell>
        <mxCell id="_aWR4UNyZZ-UsJ6io7S8-51" value="[person, person...]" style="shape=partialRectangle;html=1;whiteSpace=wrap;connectable=0;overflow=hidden;fillColor=none;top=0;left=0;bottom=0;right=0;pointerEvents=1;" vertex="1" parent="_aWR4UNyZZ-UsJ6io7S8-47">
          <mxGeometry x="498" width="166" height="40" as="geometry">
            <mxRectangle width="166" height="40" as="alternateBounds" />
          </mxGeometry>
        </mxCell>
        <mxCell id="_aWR4UNyZZ-UsJ6io7S8-52" value="(e3)" style="shape=partialRectangle;html=1;whiteSpace=wrap;connectable=0;overflow=hidden;fillColor=none;top=0;left=0;bottom=0;right=0;pointerEvents=1;" vertex="1" parent="_aWR4UNyZZ-UsJ6io7S8-47">
          <mxGeometry x="664" width="166" height="40" as="geometry">
            <mxRectangle width="166" height="40" as="alternateBounds" />
          </mxGeometry>
        </mxCell>
        <mxCell id="_aWR4UNyZZ-UsJ6io7S8-53" value="" style="shape=tableRow;horizontal=0;startSize=0;swimlaneHead=0;swimlaneBody=0;top=0;left=0;bottom=0;right=0;collapsible=0;dropTarget=0;fillColor=none;points=[[0,0.5],[1,0.5]];portConstraint=eastwest;" vertex="1" parent="_aWR4UNyZZ-UsJ6io7S8-28">
          <mxGeometry y="200" width="830" height="50" as="geometry" />
        </mxCell>
        <mxCell id="_aWR4UNyZZ-UsJ6io7S8-54" value="GET" style="shape=partialRectangle;html=1;whiteSpace=wrap;connectable=0;overflow=hidden;fillColor=none;top=0;left=0;bottom=0;right=0;pointerEvents=1;" vertex="1" parent="_aWR4UNyZZ-UsJ6io7S8-53">
          <mxGeometry width="166" height="50" as="geometry">
            <mxRectangle width="166" height="50" as="alternateBounds" />
          </mxGeometry>
        </mxCell>
        <mxCell id="_aWR4UNyZZ-UsJ6io7S8-55" value="/api/hobbyCount{hobbyName}&lt;br&gt;hobbyName: the name of a hobby" style="shape=partialRectangle;html=1;whiteSpace=wrap;connectable=0;overflow=hidden;fillColor=none;top=0;left=0;bottom=0;right=0;pointerEvents=1;" vertex="1" parent="_aWR4UNyZZ-UsJ6io7S8-53">
          <mxGeometry x="166" width="166" height="50" as="geometry">
            <mxRectangle width="166" height="50" as="alternateBounds" />
          </mxGeometry>
        </mxCell>
        <mxCell id="_aWR4UNyZZ-UsJ6io7S8-56" value="" style="shape=partialRectangle;html=1;whiteSpace=wrap;connectable=0;overflow=hidden;fillColor=none;top=0;left=0;bottom=0;right=0;pointerEvents=1;" vertex="1" parent="_aWR4UNyZZ-UsJ6io7S8-53">
          <mxGeometry x="332" width="166" height="50" as="geometry">
            <mxRectangle width="166" height="50" as="alternateBounds" />
          </mxGeometry>
        </mxCell>
        <mxCell id="_aWR4UNyZZ-UsJ6io7S8-57" value="Int" style="shape=partialRectangle;html=1;whiteSpace=wrap;connectable=0;overflow=hidden;fillColor=none;top=0;left=0;bottom=0;right=0;pointerEvents=1;" vertex="1" parent="_aWR4UNyZZ-UsJ6io7S8-53">
          <mxGeometry x="498" width="166" height="50" as="geometry">
            <mxRectangle width="166" height="50" as="alternateBounds" />
          </mxGeometry>
        </mxCell>
        <mxCell id="_aWR4UNyZZ-UsJ6io7S8-58" value="(e2)" style="shape=partialRectangle;html=1;whiteSpace=wrap;connectable=0;overflow=hidden;fillColor=none;top=0;left=0;bottom=0;right=0;pointerEvents=1;" vertex="1" parent="_aWR4UNyZZ-UsJ6io7S8-53">
          <mxGeometry x="664" width="166" height="50" as="geometry">
            <mxRectangle width="166" height="50" as="alternateBounds" />
          </mxGeometry>
        </mxCell>
        <mxCell id="_aWR4UNyZZ-UsJ6io7S8-59" value="" style="shape=tableRow;horizontal=0;startSize=0;swimlaneHead=0;swimlaneBody=0;top=0;left=0;bottom=0;right=0;collapsible=0;dropTarget=0;fillColor=none;points=[[0,0.5],[1,0.5]];portConstraint=eastwest;" vertex="1" parent="_aWR4UNyZZ-UsJ6io7S8-28">
          <mxGeometry y="250" width="830" height="40" as="geometry" />
        </mxCell>
        <mxCell id="_aWR4UNyZZ-UsJ6io7S8-60" value="GET" style="shape=partialRectangle;html=1;whiteSpace=wrap;connectable=0;overflow=hidden;fillColor=none;top=0;left=0;bottom=0;right=0;pointerEvents=1;" vertex="1" parent="_aWR4UNyZZ-UsJ6io7S8-59">
          <mxGeometry width="166" height="40" as="geometry">
            <mxRectangle width="166" height="40" as="alternateBounds" />
          </mxGeometry>
        </mxCell>
        <mxCell id="_aWR4UNyZZ-UsJ6io7S8-61" value="/api/city/" style="shape=partialRectangle;html=1;whiteSpace=wrap;connectable=0;overflow=hidden;fillColor=none;top=0;left=0;bottom=0;right=0;pointerEvents=1;" vertex="1" parent="_aWR4UNyZZ-UsJ6io7S8-59">
          <mxGeometry x="166" width="166" height="40" as="geometry">
            <mxRectangle width="166" height="40" as="alternateBounds" />
          </mxGeometry>
        </mxCell>
        <mxCell id="_aWR4UNyZZ-UsJ6io7S8-62" value="" style="shape=partialRectangle;html=1;whiteSpace=wrap;connectable=0;overflow=hidden;fillColor=none;top=0;left=0;bottom=0;right=0;pointerEvents=1;" vertex="1" parent="_aWR4UNyZZ-UsJ6io7S8-59">
          <mxGeometry x="332" width="166" height="40" as="geometry">
            <mxRectangle width="166" height="40" as="alternateBounds" />
          </mxGeometry>
        </mxCell>
        <mxCell id="_aWR4UNyZZ-UsJ6io7S8-63" value="[zipcode, zipcode...]" style="shape=partialRectangle;html=1;whiteSpace=wrap;connectable=0;overflow=hidden;fillColor=none;top=0;left=0;bottom=0;right=0;pointerEvents=1;" vertex="1" parent="_aWR4UNyZZ-UsJ6io7S8-59">
          <mxGeometry x="498" width="166" height="40" as="geometry">
            <mxRectangle width="166" height="40" as="alternateBounds" />
          </mxGeometry>
        </mxCell>
        <mxCell id="_aWR4UNyZZ-UsJ6io7S8-64" value="" style="shape=partialRectangle;html=1;whiteSpace=wrap;connectable=0;overflow=hidden;fillColor=none;top=0;left=0;bottom=0;right=0;pointerEvents=1;" vertex="1" parent="_aWR4UNyZZ-UsJ6io7S8-59">
          <mxGeometry x="664" width="166" height="40" as="geometry">
            <mxRectangle width="166" height="40" as="alternateBounds" />
          </mxGeometry>
        </mxCell>
        <mxCell id="_aWR4UNyZZ-UsJ6io7S8-65" value="" style="shape=tableRow;horizontal=0;startSize=0;swimlaneHead=0;swimlaneBody=0;top=0;left=0;bottom=0;right=0;collapsible=0;dropTarget=0;fillColor=none;points=[[0,0.5],[1,0.5]];portConstraint=eastwest;" vertex="1" parent="_aWR4UNyZZ-UsJ6io7S8-28">
          <mxGeometry y="290" width="830" height="80" as="geometry" />
        </mxCell>
        <mxCell id="_aWR4UNyZZ-UsJ6io7S8-66" value="POST" style="shape=partialRectangle;html=1;whiteSpace=wrap;connectable=0;overflow=hidden;fillColor=none;top=0;left=0;bottom=0;right=0;pointerEvents=1;" vertex="1" parent="_aWR4UNyZZ-UsJ6io7S8-65">
          <mxGeometry width="166" height="80" as="geometry">
            <mxRectangle width="166" height="80" as="alternateBounds" />
          </mxGeometry>
        </mxCell>
        <mxCell id="_aWR4UNyZZ-UsJ6io7S8-67" value="/api/person" style="shape=partialRectangle;html=1;whiteSpace=wrap;connectable=0;overflow=hidden;fillColor=none;top=0;left=0;bottom=0;right=0;pointerEvents=1;" vertex="1" parent="_aWR4UNyZZ-UsJ6io7S8-65">
          <mxGeometry x="166" width="166" height="80" as="geometry">
            <mxRectangle width="166" height="80" as="alternateBounds" />
          </mxGeometry>
        </mxCell>
        <mxCell id="_aWR4UNyZZ-UsJ6io7S8-68" value="person(1) without id" style="shape=partialRectangle;html=1;whiteSpace=wrap;connectable=0;overflow=hidden;fillColor=none;top=0;left=0;bottom=0;right=0;pointerEvents=1;" vertex="1" parent="_aWR4UNyZZ-UsJ6io7S8-65">
          <mxGeometry x="332" width="166" height="80" as="geometry">
            <mxRectangle width="166" height="80" as="alternateBounds" />
          </mxGeometry>
        </mxCell>
        <mxCell id="_aWR4UNyZZ-UsJ6io7S8-69" value="&lt;span style=&quot;color: rgb(0, 0, 0); font-family: Helvetica; font-size: 12px; font-style: normal; font-variant-ligatures: normal; font-variant-caps: normal; font-weight: 400; letter-spacing: normal; orphans: 2; text-align: center; text-indent: 0px; text-transform: none; widows: 2; word-spacing: 0px; -webkit-text-stroke-width: 0px; background-color: rgb(248, 249, 250); text-decoration-thickness: initial; text-decoration-style: initial; text-decoration-color: initial; float: none; display: inline !important;&quot;&gt;PersonDTO&lt;/span&gt;&lt;br style=&quot;color: rgb(0, 0, 0); font-family: Helvetica; font-size: 12px; font-style: normal; font-variant-ligatures: normal; font-variant-caps: normal; font-weight: 400; letter-spacing: normal; orphans: 2; text-align: center; text-indent: 0px; text-transform: none; widows: 2; word-spacing: 0px; -webkit-text-stroke-width: 0px; background-color: rgb(248, 249, 250); text-decoration-thickness: initial; text-decoration-style: initial; text-decoration-color: initial;&quot;&gt;&lt;span style=&quot;color: rgb(0, 0, 0); font-family: Helvetica; font-size: 12px; font-style: normal; font-variant-ligatures: normal; font-variant-caps: normal; font-weight: 400; letter-spacing: normal; orphans: 2; text-align: center; text-indent: 0px; text-transform: none; widows: 2; word-spacing: 0px; -webkit-text-stroke-width: 0px; background-color: rgb(248, 249, 250); text-decoration-thickness: initial; text-decoration-style: initial; text-decoration-color: initial; float: none; display: inline !important;&quot;&gt;{email, address, firstName,&lt;/span&gt;&lt;br style=&quot;color: rgb(0, 0, 0); font-family: Helvetica; font-size: 12px; font-style: normal; font-variant-ligatures: normal; font-variant-caps: normal; font-weight: 400; letter-spacing: normal; orphans: 2; text-align: center; text-indent: 0px; text-transform: none; widows: 2; word-spacing: 0px; -webkit-text-stroke-width: 0px; background-color: rgb(248, 249, 250); text-decoration-thickness: initial; text-decoration-style: initial; text-decoration-color: initial;&quot;&gt;&lt;span style=&quot;color: rgb(0, 0, 0); font-family: Helvetica; font-size: 12px; font-style: normal; font-variant-ligatures: normal; font-variant-caps: normal; font-weight: 400; letter-spacing: normal; orphans: 2; text-align: center; text-indent: 0px; text-transform: none; widows: 2; word-spacing: 0px; -webkit-text-stroke-width: 0px; background-color: rgb(248, 249, 250); text-decoration-thickness: initial; text-decoration-style: initial; text-decoration-color: initial; float: none; display: inline !important;&quot;&gt;lastName, hobbies, age&lt;/span&gt;&lt;br style=&quot;color: rgb(0, 0, 0); font-family: Helvetica; font-size: 12px; font-style: normal; font-variant-ligatures: normal; font-variant-caps: normal; font-weight: 400; letter-spacing: normal; orphans: 2; text-align: center; text-indent: 0px; text-transform: none; widows: 2; word-spacing: 0px; -webkit-text-stroke-width: 0px; background-color: rgb(248, 249, 250); text-decoration-thickness: initial; text-decoration-style: initial; text-decoration-color: initial;&quot;&gt;&lt;span style=&quot;color: rgb(0, 0, 0); font-family: Helvetica; font-size: 12px; font-style: normal; font-variant-ligatures: normal; font-variant-caps: normal; font-weight: 400; letter-spacing: normal; orphans: 2; text-align: center; text-indent: 0px; text-transform: none; widows: 2; word-spacing: 0px; -webkit-text-stroke-width: 0px; background-color: rgb(248, 249, 250); text-decoration-thickness: initial; text-decoration-style: initial; text-decoration-color: initial; float: none; display: inline !important;&quot;&gt;gender}&lt;/span&gt;" style="shape=partialRectangle;html=1;whiteSpace=wrap;connectable=0;overflow=hidden;fillColor=none;top=0;left=0;bottom=0;right=0;pointerEvents=1;" vertex="1" parent="_aWR4UNyZZ-UsJ6io7S8-65">
          <mxGeometry x="498" width="166" height="80" as="geometry">
            <mxRectangle width="166" height="80" as="alternateBounds" />
          </mxGeometry>
        </mxCell>
        <mxCell id="_aWR4UNyZZ-UsJ6io7S8-70" value="(e4)" style="shape=partialRectangle;html=1;whiteSpace=wrap;connectable=0;overflow=hidden;fillColor=none;top=0;left=0;bottom=0;right=0;pointerEvents=1;" vertex="1" parent="_aWR4UNyZZ-UsJ6io7S8-65">
          <mxGeometry x="664" width="166" height="80" as="geometry">
            <mxRectangle width="166" height="80" as="alternateBounds" />
          </mxGeometry>
        </mxCell>
        <mxCell id="_aWR4UNyZZ-UsJ6io7S8-71" value="" style="shape=tableRow;horizontal=0;startSize=0;swimlaneHead=0;swimlaneBody=0;top=0;left=0;bottom=0;right=0;collapsible=0;dropTarget=0;fillColor=none;points=[[0,0.5],[1,0.5]];portConstraint=eastwest;" vertex="1" parent="_aWR4UNyZZ-UsJ6io7S8-28">
          <mxGeometry y="370" width="830" height="70" as="geometry" />
        </mxCell>
        <mxCell id="_aWR4UNyZZ-UsJ6io7S8-72" value="PUT&lt;span style=&quot;white-space: pre;&quot;&gt;	&lt;/span&gt;" style="shape=partialRectangle;html=1;whiteSpace=wrap;connectable=0;overflow=hidden;fillColor=none;top=0;left=0;bottom=0;right=0;pointerEvents=1;" vertex="1" parent="_aWR4UNyZZ-UsJ6io7S8-71">
          <mxGeometry width="166" height="70" as="geometry">
            <mxRectangle width="166" height="70" as="alternateBounds" />
          </mxGeometry>
        </mxCell>
        <mxCell id="_aWR4UNyZZ-UsJ6io7S8-73" value="/api/person/{id}&lt;br&gt;id: a persons id" style="shape=partialRectangle;html=1;whiteSpace=wrap;connectable=0;overflow=hidden;fillColor=none;top=0;left=0;bottom=0;right=0;pointerEvents=1;" vertex="1" parent="_aWR4UNyZZ-UsJ6io7S8-71">
          <mxGeometry x="166" width="166" height="70" as="geometry">
            <mxRectangle width="166" height="70" as="alternateBounds" />
          </mxGeometry>
        </mxCell>
        <mxCell id="_aWR4UNyZZ-UsJ6io7S8-74" value="person(1) without id" style="shape=partialRectangle;html=1;whiteSpace=wrap;connectable=0;overflow=hidden;fillColor=none;top=0;left=0;bottom=0;right=0;pointerEvents=1;" vertex="1" parent="_aWR4UNyZZ-UsJ6io7S8-71">
          <mxGeometry x="332" width="166" height="70" as="geometry">
            <mxRectangle width="166" height="70" as="alternateBounds" />
          </mxGeometry>
        </mxCell>
        <mxCell id="_aWR4UNyZZ-UsJ6io7S8-75" value="&lt;span style=&quot;color: rgb(0, 0, 0); font-family: Helvetica; font-size: 12px; font-style: normal; font-variant-ligatures: normal; font-variant-caps: normal; font-weight: 400; letter-spacing: normal; orphans: 2; text-align: center; text-indent: 0px; text-transform: none; widows: 2; word-spacing: 0px; -webkit-text-stroke-width: 0px; background-color: rgb(248, 249, 250); text-decoration-thickness: initial; text-decoration-style: initial; text-decoration-color: initial; float: none; display: inline !important;&quot;&gt;PersonDTO&lt;/span&gt;&lt;br style=&quot;color: rgb(0, 0, 0); font-family: Helvetica; font-size: 12px; font-style: normal; font-variant-ligatures: normal; font-variant-caps: normal; font-weight: 400; letter-spacing: normal; orphans: 2; text-align: center; text-indent: 0px; text-transform: none; widows: 2; word-spacing: 0px; -webkit-text-stroke-width: 0px; background-color: rgb(248, 249, 250); text-decoration-thickness: initial; text-decoration-style: initial; text-decoration-color: initial;&quot;&gt;&lt;span style=&quot;color: rgb(0, 0, 0); font-family: Helvetica; font-size: 12px; font-style: normal; font-variant-ligatures: normal; font-variant-caps: normal; font-weight: 400; letter-spacing: normal; orphans: 2; text-align: center; text-indent: 0px; text-transform: none; widows: 2; word-spacing: 0px; -webkit-text-stroke-width: 0px; background-color: rgb(248, 249, 250); text-decoration-thickness: initial; text-decoration-style: initial; text-decoration-color: initial; float: none; display: inline !important;&quot;&gt;{email, address, firstName,&lt;/span&gt;&lt;br style=&quot;color: rgb(0, 0, 0); font-family: Helvetica; font-size: 12px; font-style: normal; font-variant-ligatures: normal; font-variant-caps: normal; font-weight: 400; letter-spacing: normal; orphans: 2; text-align: center; text-indent: 0px; text-transform: none; widows: 2; word-spacing: 0px; -webkit-text-stroke-width: 0px; background-color: rgb(248, 249, 250); text-decoration-thickness: initial; text-decoration-style: initial; text-decoration-color: initial;&quot;&gt;&lt;span style=&quot;color: rgb(0, 0, 0); font-family: Helvetica; font-size: 12px; font-style: normal; font-variant-ligatures: normal; font-variant-caps: normal; font-weight: 400; letter-spacing: normal; orphans: 2; text-align: center; text-indent: 0px; text-transform: none; widows: 2; word-spacing: 0px; -webkit-text-stroke-width: 0px; background-color: rgb(248, 249, 250); text-decoration-thickness: initial; text-decoration-style: initial; text-decoration-color: initial; float: none; display: inline !important;&quot;&gt;lastName, hobbies, age&lt;/span&gt;&lt;br style=&quot;color: rgb(0, 0, 0); font-family: Helvetica; font-size: 12px; font-style: normal; font-variant-ligatures: normal; font-variant-caps: normal; font-weight: 400; letter-spacing: normal; orphans: 2; text-align: center; text-indent: 0px; text-transform: none; widows: 2; word-spacing: 0px; -webkit-text-stroke-width: 0px; background-color: rgb(248, 249, 250); text-decoration-thickness: initial; text-decoration-style: initial; text-decoration-color: initial;&quot;&gt;&lt;span style=&quot;color: rgb(0, 0, 0); font-family: Helvetica; font-size: 12px; font-style: normal; font-variant-ligatures: normal; font-variant-caps: normal; font-weight: 400; letter-spacing: normal; orphans: 2; text-align: center; text-indent: 0px; text-transform: none; widows: 2; word-spacing: 0px; -webkit-text-stroke-width: 0px; background-color: rgb(248, 249, 250); text-decoration-thickness: initial; text-decoration-style: initial; text-decoration-color: initial; float: none; display: inline !important;&quot;&gt;gender}&lt;/span&gt;" style="shape=partialRectangle;html=1;whiteSpace=wrap;connectable=0;overflow=hidden;fillColor=none;top=0;left=0;bottom=0;right=0;pointerEvents=1;" vertex="1" parent="_aWR4UNyZZ-UsJ6io7S8-71">
          <mxGeometry x="498" width="166" height="70" as="geometry">
            <mxRectangle width="166" height="70" as="alternateBounds" />
          </mxGeometry>
        </mxCell>
        <mxCell id="_aWR4UNyZZ-UsJ6io7S8-76" value="(e5)" style="shape=partialRectangle;html=1;whiteSpace=wrap;connectable=0;overflow=hidden;fillColor=none;top=0;left=0;bottom=0;right=0;pointerEvents=1;" vertex="1" parent="_aWR4UNyZZ-UsJ6io7S8-71">
          <mxGeometry x="664" width="166" height="70" as="geometry">
            <mxRectangle width="166" height="70" as="alternateBounds" />
          </mxGeometry>
        </mxCell>
        <mxCell id="_aWR4UNyZZ-UsJ6io7S8-77" value="" style="shape=tableRow;horizontal=0;startSize=0;swimlaneHead=0;swimlaneBody=0;top=0;left=0;bottom=0;right=0;collapsible=0;dropTarget=0;fillColor=none;points=[[0,0.5],[1,0.5]];portConstraint=eastwest;" vertex="1" parent="_aWR4UNyZZ-UsJ6io7S8-28">
          <mxGeometry y="440" width="830" height="70" as="geometry" />
        </mxCell>
        <mxCell id="_aWR4UNyZZ-UsJ6io7S8-78" value="DELETE" style="shape=partialRectangle;html=1;whiteSpace=wrap;connectable=0;overflow=hidden;fillColor=none;top=0;left=0;bottom=0;right=0;pointerEvents=1;" vertex="1" parent="_aWR4UNyZZ-UsJ6io7S8-77">
          <mxGeometry width="166" height="70" as="geometry">
            <mxRectangle width="166" height="70" as="alternateBounds" />
          </mxGeometry>
        </mxCell>
        <mxCell id="_aWR4UNyZZ-UsJ6io7S8-79" value="/api/person/{id}&lt;br&gt;id: a persons id" style="shape=partialRectangle;html=1;whiteSpace=wrap;connectable=0;overflow=hidden;fillColor=none;top=0;left=0;bottom=0;right=0;pointerEvents=1;" vertex="1" parent="_aWR4UNyZZ-UsJ6io7S8-77">
          <mxGeometry x="166" width="166" height="70" as="geometry">
            <mxRectangle width="166" height="70" as="alternateBounds" />
          </mxGeometry>
        </mxCell>
        <mxCell id="_aWR4UNyZZ-UsJ6io7S8-80" value="" style="shape=partialRectangle;html=1;whiteSpace=wrap;connectable=0;overflow=hidden;fillColor=none;top=0;left=0;bottom=0;right=0;pointerEvents=1;" vertex="1" parent="_aWR4UNyZZ-UsJ6io7S8-77">
          <mxGeometry x="332" width="166" height="70" as="geometry">
            <mxRectangle width="166" height="70" as="alternateBounds" />
          </mxGeometry>
        </mxCell>
        <mxCell id="_aWR4UNyZZ-UsJ6io7S8-81" value="&lt;span style=&quot;color: rgb(0, 0, 0); font-family: Helvetica; font-size: 12px; font-style: normal; font-variant-ligatures: normal; font-variant-caps: normal; font-weight: 400; letter-spacing: normal; orphans: 2; text-align: center; text-indent: 0px; text-transform: none; widows: 2; word-spacing: 0px; -webkit-text-stroke-width: 0px; background-color: rgb(248, 249, 250); text-decoration-thickness: initial; text-decoration-style: initial; text-decoration-color: initial; float: none; display: inline !important;&quot;&gt;PersonDTO&lt;/span&gt;&lt;br style=&quot;color: rgb(0, 0, 0); font-family: Helvetica; font-size: 12px; font-style: normal; font-variant-ligatures: normal; font-variant-caps: normal; font-weight: 400; letter-spacing: normal; orphans: 2; text-align: center; text-indent: 0px; text-transform: none; widows: 2; word-spacing: 0px; -webkit-text-stroke-width: 0px; background-color: rgb(248, 249, 250); text-decoration-thickness: initial; text-decoration-style: initial; text-decoration-color: initial;&quot;&gt;&lt;span style=&quot;color: rgb(0, 0, 0); font-family: Helvetica; font-size: 12px; font-style: normal; font-variant-ligatures: normal; font-variant-caps: normal; font-weight: 400; letter-spacing: normal; orphans: 2; text-align: center; text-indent: 0px; text-transform: none; widows: 2; word-spacing: 0px; -webkit-text-stroke-width: 0px; background-color: rgb(248, 249, 250); text-decoration-thickness: initial; text-decoration-style: initial; text-decoration-color: initial; float: none; display: inline !important;&quot;&gt;{email, address, firstName,&lt;/span&gt;&lt;br style=&quot;color: rgb(0, 0, 0); font-family: Helvetica; font-size: 12px; font-style: normal; font-variant-ligatures: normal; font-variant-caps: normal; font-weight: 400; letter-spacing: normal; orphans: 2; text-align: center; text-indent: 0px; text-transform: none; widows: 2; word-spacing: 0px; -webkit-text-stroke-width: 0px; background-color: rgb(248, 249, 250); text-decoration-thickness: initial; text-decoration-style: initial; text-decoration-color: initial;&quot;&gt;&lt;span style=&quot;color: rgb(0, 0, 0); font-family: Helvetica; font-size: 12px; font-style: normal; font-variant-ligatures: normal; font-variant-caps: normal; font-weight: 400; letter-spacing: normal; orphans: 2; text-align: center; text-indent: 0px; text-transform: none; widows: 2; word-spacing: 0px; -webkit-text-stroke-width: 0px; background-color: rgb(248, 249, 250); text-decoration-thickness: initial; text-decoration-style: initial; text-decoration-color: initial; float: none; display: inline !important;&quot;&gt;lastName, hobbies, age&lt;/span&gt;&lt;br style=&quot;color: rgb(0, 0, 0); font-family: Helvetica; font-size: 12px; font-style: normal; font-variant-ligatures: normal; font-variant-caps: normal; font-weight: 400; letter-spacing: normal; orphans: 2; text-align: center; text-indent: 0px; text-transform: none; widows: 2; word-spacing: 0px; -webkit-text-stroke-width: 0px; background-color: rgb(248, 249, 250); text-decoration-thickness: initial; text-decoration-style: initial; text-decoration-color: initial;&quot;&gt;&lt;span style=&quot;color: rgb(0, 0, 0); font-family: Helvetica; font-size: 12px; font-style: normal; font-variant-ligatures: normal; font-variant-caps: normal; font-weight: 400; letter-spacing: normal; orphans: 2; text-align: center; text-indent: 0px; text-transform: none; widows: 2; word-spacing: 0px; -webkit-text-stroke-width: 0px; background-color: rgb(248, 249, 250); text-decoration-thickness: initial; text-decoration-style: initial; text-decoration-color: initial; float: none; display: inline !important;&quot;&gt;gender}&lt;/span&gt;" style="shape=partialRectangle;html=1;whiteSpace=wrap;connectable=0;overflow=hidden;fillColor=none;top=0;left=0;bottom=0;right=0;pointerEvents=1;" vertex="1" parent="_aWR4UNyZZ-UsJ6io7S8-77">
          <mxGeometry x="498" width="166" height="70" as="geometry">
            <mxRectangle width="166" height="70" as="alternateBounds" />
          </mxGeometry>
        </mxCell>
        <mxCell id="_aWR4UNyZZ-UsJ6io7S8-82" value="(e5)" style="shape=partialRectangle;html=1;whiteSpace=wrap;connectable=0;overflow=hidden;fillColor=none;top=0;left=0;bottom=0;right=0;pointerEvents=1;" vertex="1" parent="_aWR4UNyZZ-UsJ6io7S8-77">
          <mxGeometry x="664" width="166" height="70" as="geometry">
            <mxRectangle width="166" height="70" as="alternateBounds" />
          </mxGeometry>
        </mxCell>
        <mxCell id="_aWR4UNyZZ-UsJ6io7S8-83" value="" style="shape=tableRow;horizontal=0;startSize=0;swimlaneHead=0;swimlaneBody=0;top=0;left=0;bottom=0;right=0;collapsible=0;dropTarget=0;fillColor=none;points=[[0,0.5],[1,0.5]];portConstraint=eastwest;" vertex="1" parent="_aWR4UNyZZ-UsJ6io7S8-28">
          <mxGeometry y="510" width="830" height="40" as="geometry" />
        </mxCell>
        <mxCell id="_aWR4UNyZZ-UsJ6io7S8-84" value="POST" style="shape=partialRectangle;html=1;whiteSpace=wrap;connectable=0;overflow=hidden;fillColor=none;top=0;left=0;bottom=0;right=0;pointerEvents=1;" vertex="1" parent="_aWR4UNyZZ-UsJ6io7S8-83">
          <mxGeometry width="166" height="40" as="geometry">
            <mxRectangle width="166" height="40" as="alternateBounds" />
          </mxGeometry>
        </mxCell>
        <mxCell id="_aWR4UNyZZ-UsJ6io7S8-85" value="/api/hobby/" style="shape=partialRectangle;html=1;whiteSpace=wrap;connectable=0;overflow=hidden;fillColor=none;top=0;left=0;bottom=0;right=0;pointerEvents=1;" vertex="1" parent="_aWR4UNyZZ-UsJ6io7S8-83">
          <mxGeometry x="166" width="166" height="40" as="geometry">
            <mxRectangle width="166" height="40" as="alternateBounds" />
          </mxGeometry>
        </mxCell>
        <mxCell id="_aWR4UNyZZ-UsJ6io7S8-86" value="hobby(1) without id" style="shape=partialRectangle;html=1;whiteSpace=wrap;connectable=0;overflow=hidden;fillColor=none;top=0;left=0;bottom=0;right=0;pointerEvents=1;" vertex="1" parent="_aWR4UNyZZ-UsJ6io7S8-83">
          <mxGeometry x="332" width="166" height="40" as="geometry">
            <mxRectangle width="166" height="40" as="alternateBounds" />
          </mxGeometry>
        </mxCell>
        <mxCell id="_aWR4UNyZZ-UsJ6io7S8-87" value="HobbyDTO&lt;br&gt;{name, description, niveau}" style="shape=partialRectangle;html=1;whiteSpace=wrap;connectable=0;overflow=hidden;fillColor=none;top=0;left=0;bottom=0;right=0;pointerEvents=1;" vertex="1" parent="_aWR4UNyZZ-UsJ6io7S8-83">
          <mxGeometry x="498" width="166" height="40" as="geometry">
            <mxRectangle width="166" height="40" as="alternateBounds" />
          </mxGeometry>
        </mxCell>
        <mxCell id="_aWR4UNyZZ-UsJ6io7S8-88" value="(e6)" style="shape=partialRectangle;html=1;whiteSpace=wrap;connectable=0;overflow=hidden;fillColor=none;top=0;left=0;bottom=0;right=0;pointerEvents=1;" vertex="1" parent="_aWR4UNyZZ-UsJ6io7S8-83">
          <mxGeometry x="664" width="166" height="40" as="geometry">
            <mxRectangle width="166" height="40" as="alternateBounds" />
          </mxGeometry>
        </mxCell>
        <mxCell id="_aWR4UNyZZ-UsJ6io7S8-89" value="" style="shape=tableRow;horizontal=0;startSize=0;swimlaneHead=0;swimlaneBody=0;top=0;left=0;bottom=0;right=0;collapsible=0;dropTarget=0;fillColor=none;points=[[0,0.5],[1,0.5]];portConstraint=eastwest;" vertex="1" parent="_aWR4UNyZZ-UsJ6io7S8-28">
          <mxGeometry y="550" width="830" height="40" as="geometry" />
        </mxCell>
        <mxCell id="_aWR4UNyZZ-UsJ6io7S8-90" value="PUT" style="shape=partialRectangle;html=1;whiteSpace=wrap;connectable=0;overflow=hidden;fillColor=none;top=0;left=0;bottom=0;right=0;pointerEvents=1;" vertex="1" parent="_aWR4UNyZZ-UsJ6io7S8-89">
          <mxGeometry width="166" height="40" as="geometry">
            <mxRectangle width="166" height="40" as="alternateBounds" />
          </mxGeometry>
        </mxCell>
        <mxCell id="_aWR4UNyZZ-UsJ6io7S8-91" value="/api/hobby/{id}&lt;br&gt;id: a hobby&#39;s id" style="shape=partialRectangle;html=1;whiteSpace=wrap;connectable=0;overflow=hidden;fillColor=none;top=0;left=0;bottom=0;right=0;pointerEvents=1;" vertex="1" parent="_aWR4UNyZZ-UsJ6io7S8-89">
          <mxGeometry x="166" width="166" height="40" as="geometry">
            <mxRectangle width="166" height="40" as="alternateBounds" />
          </mxGeometry>
        </mxCell>
        <mxCell id="_aWR4UNyZZ-UsJ6io7S8-92" value="hobby(1) without id" style="shape=partialRectangle;html=1;whiteSpace=wrap;connectable=0;overflow=hidden;fillColor=none;top=0;left=0;bottom=0;right=0;pointerEvents=1;" vertex="1" parent="_aWR4UNyZZ-UsJ6io7S8-89">
          <mxGeometry x="332" width="166" height="40" as="geometry">
            <mxRectangle width="166" height="40" as="alternateBounds" />
          </mxGeometry>
        </mxCell>
        <mxCell id="_aWR4UNyZZ-UsJ6io7S8-93" value="&lt;span style=&quot;color: rgb(0, 0, 0); font-family: Helvetica; font-size: 12px; font-style: normal; font-variant-ligatures: normal; font-variant-caps: normal; font-weight: 400; letter-spacing: normal; orphans: 2; text-align: center; text-indent: 0px; text-transform: none; widows: 2; word-spacing: 0px; -webkit-text-stroke-width: 0px; background-color: rgb(248, 249, 250); text-decoration-thickness: initial; text-decoration-style: initial; text-decoration-color: initial; float: none; display: inline !important;&quot;&gt;HobbyDTO&lt;/span&gt;&lt;br style=&quot;color: rgb(0, 0, 0); font-family: Helvetica; font-size: 12px; font-style: normal; font-variant-ligatures: normal; font-variant-caps: normal; font-weight: 400; letter-spacing: normal; orphans: 2; text-align: center; text-indent: 0px; text-transform: none; widows: 2; word-spacing: 0px; -webkit-text-stroke-width: 0px; background-color: rgb(248, 249, 250); text-decoration-thickness: initial; text-decoration-style: initial; text-decoration-color: initial;&quot;&gt;&lt;span style=&quot;color: rgb(0, 0, 0); font-family: Helvetica; font-size: 12px; font-style: normal; font-variant-ligatures: normal; font-variant-caps: normal; font-weight: 400; letter-spacing: normal; orphans: 2; text-align: center; text-indent: 0px; text-transform: none; widows: 2; word-spacing: 0px; -webkit-text-stroke-width: 0px; background-color: rgb(248, 249, 250); text-decoration-thickness: initial; text-decoration-style: initial; text-decoration-color: initial; float: none; display: inline !important;&quot;&gt;{name, description, niveau}&lt;/span&gt;" style="shape=partialRectangle;html=1;whiteSpace=wrap;connectable=0;overflow=hidden;fillColor=none;top=0;left=0;bottom=0;right=0;pointerEvents=1;" vertex="1" parent="_aWR4UNyZZ-UsJ6io7S8-89">
          <mxGeometry x="498" width="166" height="40" as="geometry">
            <mxRectangle width="166" height="40" as="alternateBounds" />
          </mxGeometry>
        </mxCell>
        <mxCell id="_aWR4UNyZZ-UsJ6io7S8-94" value="(e7)" style="shape=partialRectangle;html=1;whiteSpace=wrap;connectable=0;overflow=hidden;fillColor=none;top=0;left=0;bottom=0;right=0;pointerEvents=1;" vertex="1" parent="_aWR4UNyZZ-UsJ6io7S8-89">
          <mxGeometry x="664" width="166" height="40" as="geometry">
            <mxRectangle width="166" height="40" as="alternateBounds" />
          </mxGeometry>
        </mxCell>
        <mxCell id="_aWR4UNyZZ-UsJ6io7S8-95" value="" style="shape=tableRow;horizontal=0;startSize=0;swimlaneHead=0;swimlaneBody=0;top=0;left=0;bottom=0;right=0;collapsible=0;dropTarget=0;fillColor=none;points=[[0,0.5],[1,0.5]];portConstraint=eastwest;" vertex="1" parent="_aWR4UNyZZ-UsJ6io7S8-28">
          <mxGeometry y="590" width="830" height="40" as="geometry" />
        </mxCell>
        <mxCell id="_aWR4UNyZZ-UsJ6io7S8-96" value="DELETE" style="shape=partialRectangle;html=1;whiteSpace=wrap;connectable=0;overflow=hidden;fillColor=none;top=0;left=0;bottom=0;right=0;pointerEvents=1;" vertex="1" parent="_aWR4UNyZZ-UsJ6io7S8-95">
          <mxGeometry width="166" height="40" as="geometry">
            <mxRectangle width="166" height="40" as="alternateBounds" />
          </mxGeometry>
        </mxCell>
        <mxCell id="_aWR4UNyZZ-UsJ6io7S8-97" value="/api/hobby/{id}&lt;br&gt;id: a hobby&#39;s id" style="shape=partialRectangle;html=1;whiteSpace=wrap;connectable=0;overflow=hidden;fillColor=none;top=0;left=0;bottom=0;right=0;pointerEvents=1;" vertex="1" parent="_aWR4UNyZZ-UsJ6io7S8-95">
          <mxGeometry x="166" width="166" height="40" as="geometry">
            <mxRectangle width="166" height="40" as="alternateBounds" />
          </mxGeometry>
        </mxCell>
        <mxCell id="_aWR4UNyZZ-UsJ6io7S8-98" value="" style="shape=partialRectangle;html=1;whiteSpace=wrap;connectable=0;overflow=hidden;fillColor=none;top=0;left=0;bottom=0;right=0;pointerEvents=1;" vertex="1" parent="_aWR4UNyZZ-UsJ6io7S8-95">
          <mxGeometry x="332" width="166" height="40" as="geometry">
            <mxRectangle width="166" height="40" as="alternateBounds" />
          </mxGeometry>
        </mxCell>
        <mxCell id="_aWR4UNyZZ-UsJ6io7S8-99" value="&lt;span style=&quot;color: rgb(0, 0, 0); font-family: Helvetica; font-size: 12px; font-style: normal; font-variant-ligatures: normal; font-variant-caps: normal; font-weight: 400; letter-spacing: normal; orphans: 2; text-align: center; text-indent: 0px; text-transform: none; widows: 2; word-spacing: 0px; -webkit-text-stroke-width: 0px; background-color: rgb(248, 249, 250); text-decoration-thickness: initial; text-decoration-style: initial; text-decoration-color: initial; float: none; display: inline !important;&quot;&gt;HobbyDTO&lt;/span&gt;&lt;br style=&quot;color: rgb(0, 0, 0); font-family: Helvetica; font-size: 12px; font-style: normal; font-variant-ligatures: normal; font-variant-caps: normal; font-weight: 400; letter-spacing: normal; orphans: 2; text-align: center; text-indent: 0px; text-transform: none; widows: 2; word-spacing: 0px; -webkit-text-stroke-width: 0px; background-color: rgb(248, 249, 250); text-decoration-thickness: initial; text-decoration-style: initial; text-decoration-color: initial;&quot;&gt;&lt;span style=&quot;color: rgb(0, 0, 0); font-family: Helvetica; font-size: 12px; font-style: normal; font-variant-ligatures: normal; font-variant-caps: normal; font-weight: 400; letter-spacing: normal; orphans: 2; text-align: center; text-indent: 0px; text-transform: none; widows: 2; word-spacing: 0px; -webkit-text-stroke-width: 0px; background-color: rgb(248, 249, 250); text-decoration-thickness: initial; text-decoration-style: initial; text-decoration-color: initial; float: none; display: inline !important;&quot;&gt;{name, description, niveau}&lt;/span&gt;" style="shape=partialRectangle;html=1;whiteSpace=wrap;connectable=0;overflow=hidden;fillColor=none;top=0;left=0;bottom=0;right=0;pointerEvents=1;" vertex="1" parent="_aWR4UNyZZ-UsJ6io7S8-95">
          <mxGeometry x="498" width="166" height="40" as="geometry">
            <mxRectangle width="166" height="40" as="alternateBounds" />
          </mxGeometry>
        </mxCell>
        <mxCell id="_aWR4UNyZZ-UsJ6io7S8-100" value="(e8)" style="shape=partialRectangle;html=1;whiteSpace=wrap;connectable=0;overflow=hidden;fillColor=none;top=0;left=0;bottom=0;right=0;pointerEvents=1;" vertex="1" parent="_aWR4UNyZZ-UsJ6io7S8-95">
          <mxGeometry x="664" width="166" height="40" as="geometry">
            <mxRectangle width="166" height="40" as="alternateBounds" />
          </mxGeometry>
        </mxCell>
        <mxCell id="_aWR4UNyZZ-UsJ6io7S8-101" value="" style="shape=tableRow;horizontal=0;startSize=0;swimlaneHead=0;swimlaneBody=0;top=0;left=0;bottom=0;right=0;collapsible=0;dropTarget=0;fillColor=none;points=[[0,0.5],[1,0.5]];portConstraint=eastwest;" vertex="1" parent="_aWR4UNyZZ-UsJ6io7S8-28">
          <mxGeometry y="630" width="830" height="40" as="geometry" />
        </mxCell>
        <mxCell id="_aWR4UNyZZ-UsJ6io7S8-102" value="" style="shape=partialRectangle;html=1;whiteSpace=wrap;connectable=0;overflow=hidden;fillColor=none;top=0;left=0;bottom=0;right=0;pointerEvents=1;" vertex="1" parent="_aWR4UNyZZ-UsJ6io7S8-101">
          <mxGeometry width="166" height="40" as="geometry">
            <mxRectangle width="166" height="40" as="alternateBounds" />
          </mxGeometry>
        </mxCell>
        <mxCell id="_aWR4UNyZZ-UsJ6io7S8-103" value="" style="shape=partialRectangle;html=1;whiteSpace=wrap;connectable=0;overflow=hidden;fillColor=none;top=0;left=0;bottom=0;right=0;pointerEvents=1;" vertex="1" parent="_aWR4UNyZZ-UsJ6io7S8-101">
          <mxGeometry x="166" width="166" height="40" as="geometry">
            <mxRectangle width="166" height="40" as="alternateBounds" />
          </mxGeometry>
        </mxCell>
        <mxCell id="_aWR4UNyZZ-UsJ6io7S8-104" value="" style="shape=partialRectangle;html=1;whiteSpace=wrap;connectable=0;overflow=hidden;fillColor=none;top=0;left=0;bottom=0;right=0;pointerEvents=1;" vertex="1" parent="_aWR4UNyZZ-UsJ6io7S8-101">
          <mxGeometry x="332" width="166" height="40" as="geometry">
            <mxRectangle width="166" height="40" as="alternateBounds" />
          </mxGeometry>
        </mxCell>
        <mxCell id="_aWR4UNyZZ-UsJ6io7S8-105" value="" style="shape=partialRectangle;html=1;whiteSpace=wrap;connectable=0;overflow=hidden;fillColor=none;top=0;left=0;bottom=0;right=0;pointerEvents=1;" vertex="1" parent="_aWR4UNyZZ-UsJ6io7S8-101">
          <mxGeometry x="498" width="166" height="40" as="geometry">
            <mxRectangle width="166" height="40" as="alternateBounds" />
          </mxGeometry>
        </mxCell>
        <mxCell id="_aWR4UNyZZ-UsJ6io7S8-106" value="" style="shape=partialRectangle;html=1;whiteSpace=wrap;connectable=0;overflow=hidden;fillColor=none;top=0;left=0;bottom=0;right=0;pointerEvents=1;" vertex="1" parent="_aWR4UNyZZ-UsJ6io7S8-101">
          <mxGeometry x="664" width="166" height="40" as="geometry">
            <mxRectangle width="166" height="40" as="alternateBounds" />
          </mxGeometry>
        </mxCell>
        <mxCell id="_aWR4UNyZZ-UsJ6io7S8-107" value="" style="shape=tableRow;horizontal=0;startSize=0;swimlaneHead=0;swimlaneBody=0;top=0;left=0;bottom=0;right=0;collapsible=0;dropTarget=0;fillColor=none;points=[[0,0.5],[1,0.5]];portConstraint=eastwest;" vertex="1" parent="_aWR4UNyZZ-UsJ6io7S8-28">
          <mxGeometry y="670" width="830" height="40" as="geometry" />
        </mxCell>
        <mxCell id="_aWR4UNyZZ-UsJ6io7S8-108" value="" style="shape=partialRectangle;html=1;whiteSpace=wrap;connectable=0;overflow=hidden;fillColor=none;top=0;left=0;bottom=0;right=0;pointerEvents=1;" vertex="1" parent="_aWR4UNyZZ-UsJ6io7S8-107">
          <mxGeometry width="166" height="40" as="geometry">
            <mxRectangle width="166" height="40" as="alternateBounds" />
          </mxGeometry>
        </mxCell>
        <mxCell id="_aWR4UNyZZ-UsJ6io7S8-109" value="" style="shape=partialRectangle;html=1;whiteSpace=wrap;connectable=0;overflow=hidden;fillColor=none;top=0;left=0;bottom=0;right=0;pointerEvents=1;" vertex="1" parent="_aWR4UNyZZ-UsJ6io7S8-107">
          <mxGeometry x="166" width="166" height="40" as="geometry">
            <mxRectangle width="166" height="40" as="alternateBounds" />
          </mxGeometry>
        </mxCell>
        <mxCell id="_aWR4UNyZZ-UsJ6io7S8-110" value="" style="shape=partialRectangle;html=1;whiteSpace=wrap;connectable=0;overflow=hidden;fillColor=none;top=0;left=0;bottom=0;right=0;pointerEvents=1;" vertex="1" parent="_aWR4UNyZZ-UsJ6io7S8-107">
          <mxGeometry x="332" width="166" height="40" as="geometry">
            <mxRectangle width="166" height="40" as="alternateBounds" />
          </mxGeometry>
        </mxCell>
        <mxCell id="_aWR4UNyZZ-UsJ6io7S8-111" value="" style="shape=partialRectangle;html=1;whiteSpace=wrap;connectable=0;overflow=hidden;fillColor=none;top=0;left=0;bottom=0;right=0;pointerEvents=1;" vertex="1" parent="_aWR4UNyZZ-UsJ6io7S8-107">
          <mxGeometry x="498" width="166" height="40" as="geometry">
            <mxRectangle width="166" height="40" as="alternateBounds" />
          </mxGeometry>
        </mxCell>
        <mxCell id="_aWR4UNyZZ-UsJ6io7S8-112" value="" style="shape=partialRectangle;html=1;whiteSpace=wrap;connectable=0;overflow=hidden;fillColor=none;top=0;left=0;bottom=0;right=0;pointerEvents=1;" vertex="1" parent="_aWR4UNyZZ-UsJ6io7S8-107">
          <mxGeometry x="664" width="166" height="40" as="geometry">
            <mxRectangle width="166" height="40" as="alternateBounds" />
          </mxGeometry>
        </mxCell>
        <mxCell id="_aWR4UNyZZ-UsJ6io7S8-113" value="" style="shape=tableRow;horizontal=0;startSize=0;swimlaneHead=0;swimlaneBody=0;top=0;left=0;bottom=0;right=0;collapsible=0;dropTarget=0;fillColor=none;points=[[0,0.5],[1,0.5]];portConstraint=eastwest;" vertex="1" parent="_aWR4UNyZZ-UsJ6io7S8-28">
          <mxGeometry y="710" width="830" height="40" as="geometry" />
        </mxCell>
        <mxCell id="_aWR4UNyZZ-UsJ6io7S8-114" value="" style="shape=partialRectangle;html=1;whiteSpace=wrap;connectable=0;overflow=hidden;fillColor=none;top=0;left=0;bottom=0;right=0;pointerEvents=1;" vertex="1" parent="_aWR4UNyZZ-UsJ6io7S8-113">
          <mxGeometry width="166" height="40" as="geometry">
            <mxRectangle width="166" height="40" as="alternateBounds" />
          </mxGeometry>
        </mxCell>
        <mxCell id="_aWR4UNyZZ-UsJ6io7S8-115" value="" style="shape=partialRectangle;html=1;whiteSpace=wrap;connectable=0;overflow=hidden;fillColor=none;top=0;left=0;bottom=0;right=0;pointerEvents=1;" vertex="1" parent="_aWR4UNyZZ-UsJ6io7S8-113">
          <mxGeometry x="166" width="166" height="40" as="geometry">
            <mxRectangle width="166" height="40" as="alternateBounds" />
          </mxGeometry>
        </mxCell>
        <mxCell id="_aWR4UNyZZ-UsJ6io7S8-116" value="" style="shape=partialRectangle;html=1;whiteSpace=wrap;connectable=0;overflow=hidden;fillColor=none;top=0;left=0;bottom=0;right=0;pointerEvents=1;" vertex="1" parent="_aWR4UNyZZ-UsJ6io7S8-113">
          <mxGeometry x="332" width="166" height="40" as="geometry">
            <mxRectangle width="166" height="40" as="alternateBounds" />
          </mxGeometry>
        </mxCell>
        <mxCell id="_aWR4UNyZZ-UsJ6io7S8-117" value="" style="shape=partialRectangle;html=1;whiteSpace=wrap;connectable=0;overflow=hidden;fillColor=none;top=0;left=0;bottom=0;right=0;pointerEvents=1;" vertex="1" parent="_aWR4UNyZZ-UsJ6io7S8-113">
          <mxGeometry x="498" width="166" height="40" as="geometry">
            <mxRectangle width="166" height="40" as="alternateBounds" />
          </mxGeometry>
        </mxCell>
        <mxCell id="_aWR4UNyZZ-UsJ6io7S8-118" value="" style="shape=partialRectangle;html=1;whiteSpace=wrap;connectable=0;overflow=hidden;fillColor=none;top=0;left=0;bottom=0;right=0;pointerEvents=1;" vertex="1" parent="_aWR4UNyZZ-UsJ6io7S8-113">
          <mxGeometry x="664" width="166" height="40" as="geometry">
            <mxRectangle width="166" height="40" as="alternateBounds" />
          </mxGeometry>
        </mxCell>
      </root>
    </mxGraphModel>
  </diagram>
</mxfile>
